<svg xmlns="http://www.w3.org/2000/svg" id="canvas" viewBox="191.877 384.033 796.646 206.177"><path d="M 205.01,420.61 C 204.57 421.74, 204.40 423.11, 204.19 426.31 C 203.98 429.50, 204.08 431.53, 203.95 436.59 C 203.82 441.64, 203.79 445.04, 203.53 451.57 C 203.28 458.11, 203.16 461.96, 202.67 469.26 C 202.19 476.55, 201.79 480.74, 201.11 488.04 C 200.43 495.35, 200.01 499.27, 199.27 505.76 C 198.53 512.25, 198.12 515.46, 197.40 520.50 C 196.69 525.53, 196.13 527.80, 195.71 530.94 C 195.28 534.09, 195.33 534.87, 195.28 536.24 C 195.23 537.61, 195.47 537.54, 195.44 537.77 C 195.42 538.01, 195.26 537.41, 195.16 537.43 C 195.05 537.45, 194.77 537.71, 194.92 537.87 C 195.08 538.02, 195.49 538.48, 195.92 538.22 C 196.36 537.96, 196.67 537.96, 197.11 536.57 C 197.55 535.18, 197.71 534.44, 198.14 531.27 C 198.56 528.10, 198.68 525.79, 199.22 520.72 C 199.75 515.66, 200.13 512.44, 200.81 505.93 C 201.48 499.42, 201.89 495.49, 202.57 488.18 C 203.25 480.87, 203.66 476.67, 204.21 469.37 C 204.77 462.06, 204.96 458.20, 205.36 451.66 C 205.75 445.13, 205.91 441.73, 206.21 436.68 C 206.51 431.63, 206.83 429.62, 206.87 426.41 C 206.91 423.20, 206.77 421.81, 206.40 420.66 C 206.03 419.50, 205.45 419.48, 205.01 420.61" style="stroke: black; fill: black;"/><path d="M 203.33,387.30 C 202.80 387.68, 202.39 388.49, 202.43 389.24 C 202.48 389.99, 202.97 390.73, 203.54 391.05 C 204.11 391.37, 204.79 391.24, 205.27 390.84 C 205.74 390.44, 205.96 389.77, 205.93 389.06 C 205.90 388.36, 205.62 387.68, 205.10 387.33 C 204.58 386.97, 203.86 386.91, 203.33 387.30" style="stroke: black; fill: black;"/><path d="M 236.92,422.07 C 236.56 422.85, 236.44 423.47, 236.38 425.87 C 236.31 428.28, 236.54 429.89, 236.59 434.09 C 236.64 438.29, 236.76 441.14, 236.63 446.88 C 236.50 452.62, 236.29 456.35, 235.94 462.80 C 235.59 469.25, 235.29 472.86, 234.87 479.12 C 234.45 485.38, 234.13 488.71, 233.85 494.10 C 233.57 499.49, 233.57 502.04, 233.45 506.08 C 233.33 510.12, 233.05 511.71, 233.24 514.29 C 233.44 516.88, 233.77 518.13, 234.45 519.03 C 235.13 519.92, 235.90 519.89, 236.66 518.79 C 237.41 517.68, 237.63 516.62, 238.21 513.48 C 238.78 510.35, 238.66 508.22, 239.52 503.09 C 240.37 497.97, 240.93 494.48, 242.49 487.84 C 244.05 481.21, 245.04 476.99, 247.32 469.90 C 249.60 462.80, 251.04 458.76, 253.89 452.37 C 256.73 445.99, 258.46 442.75, 261.53 437.99 C 264.60 433.23, 266.33 431.16, 269.24 428.56 C 272.14 425.96, 273.58 425.45, 276.06 424.98 C 278.55 424.51, 279.60 424.90, 281.66 426.20 C 283.72 427.51, 284.77 428.46, 286.37 431.48 C 287.96 434.51, 288.65 436.51, 289.63 441.32 C 290.60 446.12, 290.91 449.35, 291.24 455.51 C 291.58 461.67, 291.46 465.49, 291.32 472.11 C 291.17 478.74, 290.79 482.58, 290.53 488.61 C 290.26 494.65, 290.02 497.53, 289.99 502.30 C 289.96 507.07, 289.98 509.09, 290.38 512.45 C 290.79 515.82, 291.46 517.83, 292.01 519.13 C 292.57 520.42, 293.08 520.30, 293.17 518.92 C 293.26 517.55, 292.72 515.58, 292.47 512.25 C 292.22 508.93, 291.97 507.01, 291.93 502.30 C 291.88 497.59, 292.03 494.71, 292.25 488.68 C 292.47 482.66, 292.86 478.81, 293.03 472.15 C 293.20 465.50, 293.36 461.67, 293.11 455.42 C 292.86 449.17, 292.67 445.93, 291.78 440.91 C 290.89 435.88, 290.40 433.68, 288.65 430.29 C 286.90 426.90, 285.63 425.49, 283.02 423.96 C 280.41 422.43, 278.62 422.01, 275.60 422.64 C 272.57 423.26, 271.00 424.21, 267.91 427.10 C 264.81 430.00, 263.22 432.17, 260.14 437.11 C 257.06 442.04, 255.37 445.30, 252.51 451.76 C 249.65 458.23, 248.20 462.29, 245.85 469.42 C 243.50 476.55, 242.50 480.77, 240.76 487.41 C 239.01 494.05, 238.31 497.52, 237.14 502.62 C 235.97 507.73, 235.34 509.81, 234.91 512.96 C 234.48 516.10, 234.82 517.19, 234.97 518.34 C 235.13 519.49, 235.47 519.52, 235.68 518.69 C 235.89 517.86, 236.02 516.70, 236.02 514.18 C 236.01 511.66, 235.72 510.09, 235.65 506.09 C 235.58 502.09, 235.49 499.55, 235.68 494.18 C 235.86 488.81, 236.16 485.49, 236.57 479.23 C 236.99 472.98, 237.30 469.37, 237.74 462.91 C 238.18 456.46, 238.46 452.72, 238.78 446.96 C 239.10 441.20, 239.23 438.35, 239.34 434.11 C 239.46 429.87, 239.57 428.20, 239.34 425.77 C 239.10 423.34, 238.67 422.71, 238.18 421.97 C 237.70 421.23, 237.28 421.29, 236.92 422.07" style="stroke: black; fill: black;"/><path d="M 361.44,427.53 C 361.57 426.72, 361.34 425.50, 360.61 424.28 C 359.89 423.05, 359.29 422.31, 357.81 421.40 C 356.32 420.49, 355.28 419.75, 353.19 419.71 C 351.11 419.68, 349.86 419.76, 347.37 421.23 C 344.87 422.70, 343.64 423.96, 340.73 427.05 C 337.81 430.15, 336.12 431.94, 332.81 436.69 C 329.49 441.44, 327.36 444.50, 324.17 450.81 C 320.99 457.12, 319.30 461.15, 316.89 468.25 C 314.47 475.35, 313.29 479.49, 312.10 486.32 C 310.91 493.15, 310.61 496.79, 310.95 502.40 C 311.28 508.00, 312.02 510.50, 313.78 514.33 C 315.54 518.16, 316.88 519.56, 319.75 521.53 C 322.61 523.50, 324.45 523.99, 328.09 524.19 C 331.74 524.39, 334.30 523.69, 337.97 522.54 C 341.64 521.39, 343.63 520.24, 346.45 518.46 C 349.28 516.67, 351.12 514.84, 352.08 513.64 C 353.03 512.43, 352.64 511.97, 351.23 512.43 C 349.81 512.89, 347.84 514.47, 345.01 515.94 C 342.18 517.42, 340.44 518.67, 337.08 519.80 C 333.71 520.93, 331.40 521.63, 328.18 521.60 C 324.97 521.57, 323.53 521.26, 321.01 519.64 C 318.48 518.02, 317.22 516.97, 315.54 513.50 C 313.86 510.03, 313.00 507.67, 312.61 502.29 C 312.22 496.90, 312.45 493.28, 313.59 486.57 C 314.73 479.86, 315.90 475.74, 318.31 468.74 C 320.72 461.74, 322.42 457.74, 325.64 451.57 C 328.87 445.39, 331.05 442.40, 334.44 437.87 C 337.83 433.35, 339.66 431.66, 342.60 428.95 C 345.54 426.23, 347.03 425.49, 349.14 424.28 C 351.25 423.06, 351.80 422.87, 353.16 422.87 C 354.51 422.88, 354.95 423.62, 355.91 424.30 C 356.87 424.98, 357.14 425.49, 357.95 426.29 C 358.76 427.10, 359.26 428.07, 359.96 428.32 C 360.66 428.57, 361.31 428.33, 361.44 427.53" style="stroke: black; fill: black;"/><path d="M 401.58,432.82 C 401.09 432.12, 400.23 431.26, 398.52 430.73 C 396.81 430.21, 395.54 429.59, 393.05 430.20 C 390.55 430.80, 388.83 431.23, 386.03 433.75 C 383.23 436.28, 381.81 438.12, 379.05 442.82 C 376.30 447.53, 374.59 450.75, 372.27 457.28 C 369.96 463.82, 368.87 468.23, 367.46 475.50 C 366.05 482.78, 365.48 487.04, 365.22 493.68 C 364.96 500.32, 365.21 503.69, 366.16 508.70 C 367.10 513.71, 367.94 515.77, 369.93 518.72 C 371.92 521.66, 373.35 522.64, 376.09 523.43 C 378.83 524.22, 380.62 524.09, 383.64 522.67 C 386.65 521.26, 388.34 519.76, 391.18 516.34 C 394.02 512.92, 395.36 510.61, 397.84 505.59 C 400.32 500.56, 401.59 497.30, 403.57 491.21 C 405.55 485.12, 406.46 481.42, 407.75 475.13 C 409.03 468.84, 409.41 465.36, 410.00 459.77 C 410.59 454.18, 410.77 451.49, 410.69 447.16 C 410.62 442.84, 410.46 441.04, 409.60 438.16 C 408.75 435.27, 407.75 434.19, 406.43 432.73 C 405.11 431.27, 403.80 431.06, 403.00 430.86 C 402.19 430.65, 402.03 431.07, 402.38 431.70 C 402.74 432.34, 403.84 432.59, 404.77 434.03 C 405.70 435.47, 406.27 436.27, 407.04 438.91 C 407.81 441.55, 408.37 443.10, 408.61 447.24 C 408.84 451.38, 408.71 454.08, 408.21 459.59 C 407.70 465.10, 407.34 468.58, 406.07 474.79 C 404.81 481.00, 403.88 484.67, 401.87 490.65 C 399.86 496.62, 398.52 499.84, 396.01 504.66 C 393.50 509.49, 392.04 511.65, 389.33 514.76 C 386.61 517.88, 384.98 518.96, 382.45 520.25 C 379.93 521.54, 378.85 521.74, 376.70 521.19 C 374.55 520.64, 373.48 520.07, 371.72 517.50 C 369.96 514.93, 368.89 513.11, 367.91 508.35 C 366.92 503.60, 366.59 500.24, 366.81 493.73 C 367.02 487.23, 367.58 482.98, 369.00 475.81 C 370.42 468.64, 371.53 464.25, 373.91 457.88 C 376.29 451.51, 378.08 448.32, 380.89 443.94 C 383.69 439.56, 385.35 438.06, 387.94 435.98 C 390.53 433.90, 391.84 433.99, 393.83 433.53 C 395.82 433.08, 396.46 433.56, 397.89 433.70 C 399.32 433.85, 400.24 434.42, 400.98 434.24 C 401.72 434.06, 402.08 433.52, 401.58 432.82" style="stroke: black; fill: black;"/><path d="M 428.85,434.16 C 428.65 435.21, 428.89 436.18, 429.19 439.08 C 429.50 441.99, 430.02 443.87, 430.37 448.69 C 430.71 453.51, 430.93 456.77, 430.92 463.17 C 430.91 469.56, 430.79 473.68, 430.32 480.67 C 429.86 487.67, 429.30 491.78, 428.60 498.15 C 427.90 504.51, 427.31 507.90, 426.82 512.48 C 426.33 517.06, 426.00 518.86, 426.15 521.05 C 426.30 523.23, 426.80 523.73, 427.56 523.42 C 428.32 523.11, 429.09 522.32, 429.96 519.48 C 430.83 516.63, 430.85 514.44, 431.91 509.18 C 432.97 503.93, 433.40 500.20, 435.25 493.20 C 437.10 486.20, 438.46 481.71, 441.17 474.18 C 443.87 466.64, 445.68 462.22, 448.76 455.54 C 451.84 448.85, 453.58 445.53, 456.55 440.75 C 459.53 435.96, 461.22 434.16, 463.63 431.62 C 466.04 429.09, 467.08 428.50, 468.60 428.06 C 470.12 427.63, 470.30 427.81, 471.24 429.44 C 472.17 431.07, 472.58 432.38, 473.27 436.20 C 473.96 440.03, 474.44 442.72, 474.68 448.57 C 474.91 454.41, 474.76 458.33, 474.45 465.44 C 474.14 472.56, 473.63 476.98, 473.12 484.14 C 472.62 491.30, 472.25 495.20, 471.91 501.24 C 471.56 507.27, 471.31 510.17, 471.41 514.31 C 471.52 518.45, 471.89 519.77, 472.43 521.94 C 472.96 524.10, 473.61 524.54, 474.09 525.13 C 474.56 525.72, 474.77 525.60, 474.80 524.89 C 474.84 524.18, 474.53 523.72, 474.26 521.60 C 474.00 519.47, 473.61 518.31, 473.47 514.25 C 473.34 510.20, 473.34 507.32, 473.58 501.32 C 473.83 495.32, 474.18 491.41, 474.69 484.25 C 475.20 477.09, 475.73 472.68, 476.13 465.53 C 476.54 458.38, 476.80 454.47, 476.73 448.51 C 476.66 442.56, 476.54 439.81, 475.80 435.74 C 475.07 431.68, 474.57 430.06, 473.05 428.18 C 471.53 426.29, 470.39 425.92, 468.21 426.32 C 466.02 426.73, 464.74 427.48, 462.13 430.19 C 459.52 432.91, 458.09 434.95, 455.16 439.90 C 452.22 444.85, 450.52 448.18, 447.44 454.94 C 444.37 461.69, 442.56 466.11, 439.78 473.67 C 437.01 481.23, 435.61 485.74, 433.58 492.74 C 431.56 499.74, 430.95 503.47, 429.65 508.68 C 428.35 513.89, 427.60 515.90, 427.09 518.79 C 426.59 521.68, 426.92 522.65, 427.13 523.12 C 427.34 523.59, 427.80 523.22, 428.15 521.14 C 428.49 519.05, 428.42 517.25, 428.85 512.69 C 429.28 508.12, 429.66 504.70, 430.29 498.32 C 430.92 491.94, 431.48 487.81, 431.99 480.79 C 432.50 473.76, 432.68 469.63, 432.83 463.19 C 432.98 456.75, 432.90 453.47, 432.74 448.57 C 432.58 443.66, 432.56 441.62, 432.04 438.68 C 431.52 435.74, 430.78 434.77, 430.14 433.86 C 429.51 432.96, 429.04 433.12, 428.85 434.16" style="stroke: black; fill: black;"/><path d="M 549.05,434.19 C 548.63 433.36, 547.88 432.34, 546.16 431.29 C 544.45 430.24, 543.10 429.44, 540.47 428.95 C 537.85 428.45, 536.04 428.22, 533.02 428.82 C 529.99 429.41, 528.33 430.24, 525.35 431.94 C 522.38 433.64, 520.79 434.82, 518.14 437.31 C 515.49 439.80, 514.09 441.32, 512.12 444.38 C 510.16 447.45, 509.18 449.36, 508.31 452.65 C 507.43 455.95, 507.17 457.80, 507.76 460.85 C 508.35 463.89, 509.14 465.27, 511.26 467.90 C 513.39 470.52, 515.03 471.57, 518.38 473.97 C 521.74 476.37, 524.16 477.57, 528.04 479.88 C 531.91 482.19, 534.17 483.17, 537.75 485.52 C 541.34 487.87, 543.29 489.18, 545.97 491.64 C 548.65 494.10, 549.79 495.38, 551.15 497.82 C 552.51 500.26, 552.90 501.41, 552.77 503.86 C 552.64 506.30, 552.16 507.41, 550.51 510.04 C 548.86 512.67, 547.65 514.20, 544.53 517.03 C 541.41 519.86, 539.12 521.52, 534.90 524.20 C 530.68 526.87, 528.02 528.33, 523.44 530.40 C 518.86 532.48, 516.09 533.41, 512.00 534.59 C 507.90 535.77, 505.76 536.00, 502.97 536.29 C 500.19 536.59, 499.34 536.39, 498.07 536.08 C 496.81 535.76, 496.93 535.39, 496.64 534.72 C 496.35 534.06, 496.84 533.16, 496.61 532.75 C 496.37 532.34, 495.75 532.16, 495.45 532.68 C 495.15 533.19, 494.72 534.24, 495.10 535.32 C 495.48 536.39, 495.71 537.29, 497.34 538.05 C 498.96 538.82, 500.17 539.38, 503.24 539.14 C 506.30 538.89, 508.46 538.18, 512.68 536.83 C 516.90 535.48, 519.66 534.52, 524.34 532.38 C 529.02 530.24, 531.73 528.81, 536.10 526.11 C 540.47 523.42, 542.85 521.82, 546.20 518.90 C 549.55 515.98, 550.97 514.49, 552.85 511.51 C 554.73 508.53, 555.43 507.00, 555.57 504.00 C 555.72 500.99, 555.15 499.33, 553.57 496.48 C 551.99 493.63, 550.58 492.36, 547.68 489.76 C 544.79 487.16, 542.76 485.88, 539.09 483.47 C 535.43 481.07, 533.16 480.06, 529.33 477.73 C 525.50 475.39, 523.12 474.13, 519.94 471.81 C 516.77 469.49, 515.32 468.42, 513.47 466.12 C 511.62 463.82, 511.14 462.83, 510.69 460.30 C 510.25 457.76, 510.43 456.30, 511.22 453.44 C 512.01 450.58, 512.83 448.78, 514.63 446.00 C 516.42 443.21, 517.74 441.77, 520.20 439.53 C 522.66 437.30, 524.23 436.21, 526.92 434.81 C 529.62 433.41, 531.11 432.95, 533.68 432.55 C 536.26 432.14, 537.59 432.45, 539.81 432.80 C 542.02 433.15, 543.09 433.75, 544.77 434.28 C 546.46 434.82, 547.38 435.48, 548.23 435.46 C 549.09 435.44, 549.46 435.03, 549.05 434.19" style="stroke: black; fill: black;"/><path d="M 576.82,442.83 C 576.24 443.87, 575.67 445.02, 575.26 448.23 C 574.86 451.45, 575.01 453.59, 574.78 458.92 C 574.54 464.25, 574.39 467.65, 574.10 474.88 C 573.81 482.11, 573.65 486.62, 573.33 495.08 C 573.02 503.54, 572.87 508.40, 572.53 517.17 C 572.18 525.95, 572.06 530.70, 571.61 538.96 C 571.15 547.22, 570.80 551.47, 570.26 558.46 C 569.71 565.44, 569.36 568.84, 568.88 573.88 C 568.40 578.92, 567.94 581.05, 567.85 583.66 C 567.75 586.27, 568.19 586.98, 568.41 586.92 C 568.64 586.87, 569.22 586.12, 568.97 583.38 C 568.73 580.64, 567.90 578.52, 567.20 573.23 C 566.49 567.95, 565.82 564.53, 565.45 556.96 C 565.08 549.39, 565.00 544.47, 565.35 535.39 C 565.71 526.30, 565.90 521.05, 567.21 511.54 C 568.53 502.02, 569.56 496.76, 571.91 487.80 C 574.27 478.84, 575.95 474.33, 579.01 466.74 C 582.06 459.16, 583.87 455.52, 587.21 449.88 C 590.55 444.23, 592.46 442.02, 595.72 438.51 C 598.97 435.01, 600.62 433.88, 603.47 432.36 C 606.32 430.83, 607.52 430.58, 609.98 430.89 C 612.43 431.19, 613.63 431.84, 615.76 433.89 C 617.89 435.93, 619.14 437.51, 620.63 441.11 C 622.12 444.71, 622.75 447.08, 623.22 451.90 C 623.68 456.72, 623.71 459.71, 622.95 465.22 C 622.18 470.74, 621.25 473.91, 619.39 479.49 C 617.53 485.06, 616.28 488.09, 613.63 493.10 C 610.98 498.11, 609.31 500.54, 606.13 504.54 C 602.94 508.54, 601.01 510.48, 597.69 513.11 C 594.38 515.74, 592.55 516.44, 589.56 517.68 C 586.57 518.91, 585.14 519.17, 582.75 519.29 C 580.35 519.41, 579.22 519.08, 577.57 518.27 C 575.92 517.46, 575.35 516.71, 574.50 515.24 C 573.66 513.78, 573.75 512.61, 573.35 510.93 C 572.95 509.25, 572.97 507.66, 572.49 506.85 C 572.00 506.04, 571.37 505.96, 570.92 506.88 C 570.46 507.80, 570.00 509.44, 570.19 511.44 C 570.38 513.44, 570.64 515.00, 571.87 516.87 C 573.10 518.75, 574.13 519.77, 576.34 520.82 C 578.55 521.87, 580.06 522.31, 582.90 522.14 C 585.75 521.97, 587.34 521.45, 590.57 519.97 C 593.79 518.49, 595.63 517.61, 599.03 514.75 C 602.44 511.90, 604.37 509.87, 607.61 505.70 C 610.84 501.54, 612.50 499.05, 615.20 493.93 C 617.90 488.80, 619.16 485.75, 621.09 480.06 C 623.02 474.38, 623.99 471.17, 624.85 465.50 C 625.71 459.83, 625.77 456.78, 625.39 451.72 C 625.01 446.65, 624.52 444.13, 622.97 440.17 C 621.41 436.21, 620.15 434.27, 617.61 431.92 C 615.06 429.57, 613.28 428.68, 610.24 428.40 C 607.21 428.12, 605.60 428.70, 602.45 430.50 C 599.29 432.30, 597.75 433.65, 594.46 437.38 C 591.18 441.12, 589.34 443.40, 586.03 449.19 C 582.71 454.97, 580.94 458.64, 577.90 466.30 C 574.86 473.97, 573.20 478.50, 570.84 487.52 C 568.48 496.53, 567.44 501.82, 566.09 511.38 C 564.74 520.94, 564.53 526.20, 564.08 535.33 C 563.63 544.46, 563.65 549.39, 563.83 557.02 C 564.01 564.65, 564.51 568.11, 564.98 573.48 C 565.46 578.84, 565.52 581.10, 566.20 583.85 C 566.88 586.59, 567.60 587.20, 568.38 587.21 C 569.15 587.22, 569.63 586.53, 570.08 583.89 C 570.53 581.25, 570.32 579.08, 570.63 574.02 C 570.95 568.95, 571.20 565.55, 571.64 558.56 C 572.09 551.56, 572.42 547.29, 572.85 539.02 C 573.27 530.76, 573.40 526.00, 573.76 517.22 C 574.13 508.44, 574.29 503.59, 574.69 495.14 C 575.09 486.69, 575.31 482.18, 575.75 474.96 C 576.19 467.75, 576.48 464.34, 576.91 459.05 C 577.33 453.76, 577.62 451.70, 577.87 448.50 C 578.12 445.30, 578.35 444.18, 578.14 443.05 C 577.93 441.92, 577.39 441.79, 576.82 442.83" style="stroke: black; fill: black;"/><path d="M 646.66,436.14 C 646.10 436.88, 645.64 437.71, 645.20 440.05 C 644.77 442.39, 644.77 443.88, 644.48 447.83 C 644.19 451.79, 644.15 454.55, 643.75 459.82 C 643.35 465.08, 643.10 468.18, 642.48 474.15 C 641.85 480.13, 641.39 483.86, 640.63 489.71 C 639.86 495.56, 639.36 498.66, 638.64 503.41 C 637.91 508.16, 637.24 510.29, 637.01 513.46 C 636.77 516.64, 637.07 517.76, 637.46 519.29 C 637.85 520.81, 638.32 520.82, 638.96 521.09 C 639.60 521.36, 640.16 521.02, 640.66 520.65 C 641.17 520.28, 641.63 519.69, 641.47 519.24 C 641.31 518.79, 640.29 518.31, 639.85 518.38 C 639.41 518.45, 639.37 519.17, 639.27 519.58 C 639.18 519.99, 639.35 520.52, 639.38 520.42 C 639.41 520.31, 639.37 520.40, 639.42 519.05 C 639.47 517.70, 639.37 516.74, 639.62 513.67 C 639.88 510.59, 640.11 508.44, 640.68 503.69 C 641.25 498.95, 641.73 495.81, 642.48 489.95 C 643.22 484.08, 643.69 480.35, 644.40 474.37 C 645.11 468.38, 645.43 465.29, 646.03 460.03 C 646.62 454.78, 646.96 452.02, 647.39 448.10 C 647.82 444.17, 648.05 442.75, 648.17 440.40 C 648.29 438.05, 648.28 437.21, 647.98 436.35 C 647.68 435.50, 647.21 435.40, 646.66 436.14" style="stroke: black; fill: black;"/><path d="M 655.60,402.44 C 656.14 402.10, 656.59 401.54, 656.63 401.02 C 656.67 400.51, 656.34 400.07, 655.79 399.86 C 655.24 399.65, 654.33 399.79, 653.89 399.97 C 653.46 400.15, 653.39 400.70, 653.61 400.76 C 653.84 400.82, 654.88 400.46, 655.02 400.27 C 655.16 400.08, 654.78 399.72, 654.32 399.82 C 653.85 399.92, 653.06 400.33, 652.70 400.76 C 652.34 401.18, 652.26 401.56, 652.50 401.96 C 652.75 402.35, 653.30 402.64, 653.92 402.73 C 654.54 402.83, 655.06 402.78, 655.60 402.44" style="stroke: black; fill: black;"/><path d="M 711.85,442.71 C 711.20 442.37, 710.45 442.14, 708.82 442.39 C 707.20 442.63, 705.96 442.63, 703.74 443.94 C 701.52 445.24, 700.27 446.13, 697.74 448.90 C 695.21 451.66, 693.77 453.49, 691.10 457.75 C 688.42 462.01, 686.90 464.74, 684.38 470.18 C 681.87 475.63, 680.43 478.87, 678.51 484.97 C 676.59 491.07, 675.67 494.68, 674.79 500.70 C 673.90 506.71, 673.72 509.92, 674.09 515.04 C 674.46 520.16, 674.87 522.53, 676.61 526.28 C 678.36 530.04, 679.73 531.77, 682.81 533.82 C 685.89 535.86, 688.39 536.12, 692.01 536.50 C 695.63 536.88, 697.90 536.46, 700.90 535.71 C 703.89 534.95, 705.87 533.58, 706.99 532.71 C 708.11 531.84, 707.85 531.33, 706.50 531.35 C 705.16 531.37, 703.14 532.32, 700.28 532.80 C 697.43 533.27, 695.48 533.93, 692.24 533.73 C 689.00 533.53, 686.83 533.48, 684.08 531.81 C 681.33 530.15, 680.12 528.78, 678.49 525.40 C 676.86 522.01, 676.34 519.79, 675.95 514.90 C 675.55 510.01, 675.66 506.83, 676.50 500.95 C 677.35 495.07, 678.25 491.48, 680.17 485.50 C 682.10 479.51, 683.55 476.30, 686.12 471.01 C 688.70 465.72, 690.28 463.02, 693.05 459.04 C 695.81 455.05, 697.44 453.45, 699.96 451.07 C 702.48 448.69, 703.70 448.31, 705.64 447.15 C 707.59 445.99, 708.39 445.89, 709.68 445.28 C 710.96 444.67, 711.63 444.60, 712.07 444.09 C 712.50 443.58, 712.50 443.05, 711.85 442.71" style="stroke: black; fill: black;"/><path d="M 745.21,455.07 C 744.57 455.38, 743.98 455.46, 743.03 457.19 C 742.09 458.91, 741.43 460.05, 740.47 463.71 C 739.51 467.36, 738.95 470.05, 738.21 475.48 C 737.48 480.90, 737.19 484.77, 736.79 490.85 C 736.38 496.93, 736.18 500.60, 736.19 505.89 C 736.19 511.17, 736.19 513.62, 736.79 517.27 C 737.39 520.92, 737.83 522.33, 739.17 524.14 C 740.51 525.94, 741.53 526.20, 743.50 526.29 C 745.47 526.37, 746.78 526.23, 749.02 524.56 C 751.26 522.90, 752.28 521.42, 754.69 517.97 C 757.10 514.52, 758.40 512.26, 761.06 507.30 C 763.72 502.35, 765.19 499.25, 767.98 493.18 C 770.77 487.10, 772.28 483.22, 775.02 476.92 C 777.75 470.63, 779.34 466.95, 781.65 461.70 C 783.95 456.45, 785.34 453.83, 786.55 450.66 C 787.77 447.48, 787.80 446.11, 787.73 445.81 C 787.65 445.51, 786.91 446.15, 786.17 449.17 C 785.43 452.19, 785.04 455.20, 784.01 460.91 C 782.99 466.61, 782.12 470.77, 781.04 477.69 C 779.96 484.61, 779.33 488.95, 778.63 495.51 C 777.93 502.07, 777.57 505.43, 777.55 510.50 C 777.53 515.56, 777.64 517.65, 778.55 520.84 C 779.46 524.02, 780.41 525.01, 782.10 526.43 C 783.80 527.86, 785.09 527.88, 787.03 527.97 C 788.97 528.06, 790.28 527.66, 791.80 526.89 C 793.32 526.12, 794.23 524.92, 794.62 524.11 C 795.01 523.29, 794.56 522.81, 793.75 522.82 C 792.93 522.82, 791.92 523.62, 790.56 524.13 C 789.21 524.64, 788.41 525.23, 786.99 525.36 C 785.57 525.50, 784.71 525.84, 783.47 524.80 C 782.22 523.77, 781.58 523.07, 780.77 520.20 C 779.96 517.34, 779.51 515.39, 779.42 510.49 C 779.33 505.58, 779.64 502.19, 780.33 495.69 C 781.03 489.19, 781.72 484.87, 782.90 477.99 C 784.07 471.12, 785.05 467.01, 786.19 461.32 C 787.33 455.64, 788.33 452.74, 788.61 449.57 C 788.89 446.40, 788.40 445.44, 787.58 445.48 C 786.76 445.52, 786.03 446.66, 784.50 449.76 C 782.98 452.86, 782.16 455.68, 779.96 460.98 C 777.75 466.28, 776.21 469.97, 773.49 476.26 C 770.78 482.56, 769.25 486.43, 766.40 492.44 C 763.54 498.44, 762.02 501.50, 759.23 506.28 C 756.45 511.07, 754.92 513.19, 752.48 516.36 C 750.04 519.52, 748.85 520.52, 747.04 522.10 C 745.23 523.69, 744.67 524.11, 743.45 524.28 C 742.22 524.46, 741.76 524.45, 740.90 522.98 C 740.03 521.50, 739.66 520.32, 739.12 516.90 C 738.59 513.48, 738.29 511.06, 738.23 505.87 C 738.18 500.69, 738.36 497.00, 738.83 491.00 C 739.30 484.99, 739.64 481.13, 740.57 475.84 C 741.50 470.55, 742.48 468.04, 743.48 464.53 C 744.49 461.02, 745.04 460.05, 745.59 458.28 C 746.13 456.51, 746.30 456.32, 746.22 455.68 C 746.15 455.04, 745.85 454.77, 745.21 455.07" style="stroke: black; fill: black;"/><path d="M 844.73,453.71 C 844.90 452.85, 844.77 451.70, 844.15 450.06 C 843.53 448.41, 843.16 446.98, 841.62 445.47 C 840.08 443.95, 838.82 442.66, 836.45 442.49 C 834.08 442.31, 832.67 442.62, 829.76 444.59 C 826.84 446.56, 825.07 448.18, 821.87 452.33 C 818.66 456.49, 816.68 459.54, 813.73 465.37 C 810.78 471.21, 809.21 475.09, 807.10 481.51 C 804.98 487.94, 804.03 491.66, 803.16 497.49 C 802.29 503.33, 802.12 506.24, 802.75 510.71 C 803.38 515.18, 804.19 517.19, 806.30 519.85 C 808.41 522.51, 810.10 523.27, 813.30 524.02 C 816.51 524.76, 818.57 524.55, 822.33 523.57 C 826.09 522.59, 828.27 521.67, 832.11 519.11 C 835.94 516.55, 837.98 514.83, 841.49 510.76 C 844.99 506.68, 846.77 504.06, 849.64 498.73 C 852.50 493.40, 853.77 489.99, 855.82 484.13 C 857.87 478.26, 858.72 474.88, 859.88 469.42 C 861.04 463.96, 861.40 461.13, 861.63 456.82 C 861.86 452.51, 861.76 450.65, 861.03 447.87 C 860.31 445.10, 859.38 444.25, 858.00 442.94 C 856.63 441.63, 855.63 441.42, 854.17 441.34 C 852.70 441.26, 851.28 442.02, 850.66 442.55 C 850.03 443.08, 850.35 443.79, 851.02 443.99 C 851.70 444.19, 852.93 443.44, 854.02 443.54 C 855.11 443.63, 855.58 443.45, 856.47 444.45 C 857.36 445.44, 857.86 446.06, 858.46 448.52 C 859.06 450.98, 859.55 452.63, 859.47 456.74 C 859.39 460.84, 859.12 463.69, 858.06 469.05 C 857.00 474.41, 856.16 477.78, 854.15 483.55 C 852.15 489.31, 850.88 492.69, 848.04 497.86 C 845.20 503.04, 843.41 505.57, 839.97 509.43 C 836.53 513.29, 834.49 514.82, 830.83 517.15 C 827.17 519.48, 825.07 520.19, 821.68 521.07 C 818.28 521.94, 816.56 522.05, 813.84 521.52 C 811.12 520.99, 809.90 520.65, 808.07 518.43 C 806.23 516.21, 805.32 514.56, 804.68 510.42 C 804.04 506.29, 804.07 503.42, 804.87 497.75 C 805.68 492.07, 806.61 488.35, 808.71 482.05 C 810.82 475.75, 812.41 471.90, 815.40 466.24 C 818.39 460.58, 820.45 457.60, 823.65 453.76 C 826.85 449.92, 828.91 448.74, 831.42 447.06 C 833.92 445.37, 834.69 445.18, 836.19 445.35 C 837.69 445.52, 837.95 446.65, 838.92 447.91 C 839.89 449.17, 840.15 450.36, 841.03 451.65 C 841.90 452.94, 842.56 453.94, 843.30 454.35 C 844.04 454.76, 844.56 454.57, 844.73 453.71" style="stroke: black; fill: black;"/><path d="M 884.64,447.10 C 884.02 447.61, 883.42 447.86, 882.68 450.04 C 881.95 452.22, 881.80 453.76, 880.97 458.01 C 880.13 462.25, 879.54 465.26, 878.50 471.26 C 877.46 477.26, 876.73 481.39, 875.75 488.00 C 874.78 494.61, 874.34 498.45, 873.62 504.32 C 872.89 510.19, 872.44 512.98, 872.12 517.35 C 871.80 521.72, 871.51 523.52, 872.03 526.19 C 872.55 528.85, 873.24 529.71, 874.70 530.68 C 876.17 531.66, 877.25 531.92, 879.34 531.07 C 881.43 530.23, 882.60 529.38, 885.16 526.46 C 887.72 523.54, 889.08 521.33, 892.12 516.47 C 895.17 511.61, 896.90 508.28, 900.38 502.14 C 903.86 496.00, 905.88 492.11, 909.53 485.76 C 913.19 479.41, 915.32 475.76, 918.64 470.41 C 921.96 465.07, 923.62 462.62, 926.11 459.04 C 928.60 455.45, 929.82 454.23, 931.09 452.48 C 932.36 450.73, 932.34 450.12, 932.46 450.29 C 932.58 450.46, 931.96 450.98, 931.68 453.32 C 931.40 455.67, 931.43 457.55, 931.05 462.02 C 930.66 466.49, 930.33 469.68, 929.76 475.68 C 929.19 481.68, 928.80 485.57, 928.20 492.04 C 927.61 498.51, 927.28 502.22, 926.78 508.04 C 926.28 513.86, 925.94 516.73, 925.70 521.13 C 925.46 525.54, 925.29 527.37, 925.59 530.09 C 925.89 532.81, 926.53 533.50, 927.21 534.72 C 927.89 535.94, 928.36 536.01, 928.99 536.19 C 929.61 536.37, 930.13 535.87, 930.34 535.61 C 930.54 535.36, 930.19 534.98, 929.99 534.91 C 929.80 534.85, 929.58 535.46, 929.37 535.29 C 929.16 535.11, 929.18 535.13, 928.95 534.04 C 928.72 532.94, 928.45 532.39, 928.22 529.82 C 927.99 527.26, 927.72 525.54, 927.79 521.21 C 927.87 516.88, 928.14 513.99, 928.58 508.19 C 929.02 502.39, 929.35 498.67, 930.00 492.21 C 930.66 485.76, 931.11 481.89, 931.86 475.91 C 932.61 469.93, 933.21 466.81, 933.75 462.30 C 934.29 457.80, 934.74 455.92, 934.56 453.38 C 934.38 450.85, 933.85 450.08, 932.83 449.62 C 931.81 449.16, 931.15 449.42, 929.47 451.08 C 927.80 452.74, 926.90 454.22, 924.46 457.92 C 922.01 461.61, 920.50 464.15, 917.24 469.56 C 913.98 474.97, 911.85 478.63, 908.18 484.98 C 904.51 491.32, 902.46 495.22, 898.90 501.29 C 895.33 507.35, 893.51 510.64, 890.34 515.30 C 887.16 519.96, 885.46 521.87, 883.04 524.58 C 880.61 527.30, 879.71 527.91, 878.23 528.87 C 876.75 529.82, 876.42 529.96, 875.66 529.35 C 874.90 528.74, 874.73 528.18, 874.43 525.80 C 874.14 523.42, 873.99 521.72, 874.19 517.47 C 874.38 513.22, 874.73 510.38, 875.41 504.54 C 876.08 498.70, 876.51 494.85, 877.55 488.27 C 878.58 481.70, 879.36 477.59, 880.58 471.65 C 881.80 465.71, 882.67 462.76, 883.64 458.58 C 884.61 454.40, 885.01 452.98, 885.44 450.77 C 885.86 448.55, 885.91 448.24, 885.75 447.51 C 885.59 446.78, 885.25 446.60, 884.64 447.10" style="stroke: black; fill: black;"/><path d="M 985.23,448.92 C 984.65 448.08, 983.65 447.02, 981.61 446.09 C 979.57 445.15, 978.04 444.42, 975.04 444.24 C 972.04 444.06, 970.09 444.05, 966.60 445.20 C 963.11 446.34, 961.09 447.51, 957.58 449.95 C 954.07 452.40, 952.16 454.18, 949.05 457.43 C 945.94 460.69, 944.18 462.64, 942.01 466.21 C 939.84 469.78, 938.94 471.82, 938.21 475.28 C 937.49 478.75, 937.46 480.54, 938.36 483.53 C 939.26 486.53, 940.37 487.88, 942.71 490.26 C 945.05 492.64, 946.79 493.50, 950.06 495.43 C 953.32 497.35, 955.44 498.17, 959.04 499.89 C 962.65 501.61, 964.76 502.35, 968.09 504.04 C 971.41 505.74, 973.16 506.62, 975.68 508.37 C 978.19 510.13, 979.33 511.03, 980.66 512.81 C 982.00 514.59, 982.32 515.37, 982.34 517.27 C 982.35 519.18, 981.96 520.11, 980.73 522.32 C 979.51 524.54, 978.70 525.83, 976.23 528.37 C 973.76 530.91, 971.84 532.47, 968.38 535.02 C 964.92 537.58, 962.78 539.04, 958.92 541.13 C 955.07 543.23, 952.78 544.22, 949.10 545.51 C 945.42 546.80, 943.40 547.13, 940.53 547.58 C 937.65 548.03, 936.60 547.93, 934.74 547.77 C 932.88 547.60, 932.01 546.77, 931.21 546.76 C 930.42 546.75, 930.14 547.08, 930.76 547.73 C 931.38 548.39, 932.28 549.49, 934.32 550.04 C 936.36 550.60, 937.82 550.94, 940.96 550.52 C 944.09 550.09, 946.15 549.36, 949.98 547.92 C 953.81 546.47, 956.11 545.46, 960.10 543.30 C 964.09 541.15, 966.27 539.72, 969.92 537.15 C 973.56 534.59, 975.58 533.13, 978.32 530.46 C 981.06 527.80, 982.26 526.50, 983.61 523.84 C 984.96 521.19, 985.19 519.73, 985.08 517.19 C 984.96 514.65, 984.55 513.38, 983.01 511.13 C 981.47 508.88, 980.11 507.85, 977.37 505.94 C 974.63 504.03, 972.76 503.28, 969.33 501.57 C 965.90 499.87, 963.80 499.13, 960.23 497.41 C 956.67 495.69, 954.60 494.82, 951.50 492.98 C 948.40 491.15, 946.84 490.28, 944.75 488.23 C 942.65 486.17, 941.83 485.19, 941.05 482.71 C 940.26 480.22, 940.19 478.86, 940.82 475.83 C 941.44 472.79, 942.17 470.85, 944.17 467.52 C 946.18 464.19, 947.87 462.25, 950.86 459.18 C 953.84 456.11, 955.75 454.37, 959.08 452.17 C 962.41 449.97, 964.35 449.03, 967.49 448.20 C 970.64 447.37, 972.18 447.82, 974.79 448.02 C 977.40 448.21, 978.59 448.72, 980.54 449.17 C 982.49 449.62, 983.60 450.32, 984.54 450.27 C 985.48 450.22, 985.82 449.75, 985.23 448.92" style="stroke: black; fill: black;"/></svg>